<svg width="24" height="24" viewBox="0 0 24 24" fill="none" xmlns="http://www.w3.org/2000/svg">
<path d="M11.9996 9.5999C13.9878 9.5999 15.5996 7.98813 15.5996 5.9999C15.5996 4.01168 13.9878 2.3999 11.9996 2.3999C10.0114 2.3999 8.39961 4.01168 8.39961 5.9999C8.39961 7.98813 10.0114 9.5999 11.9996 9.5999Z" fill="black"/>
<path d="M4.15781 17.3921C3.92395 18.0018 4.13283 18.6851 4.64865 19.0854C6.67948 20.6616 9.23003 21.5999 11.9997 21.5999C14.7723 21.5999 17.3252 20.6596 19.3571 19.0806C19.8726 18.6799 20.081 17.9965 19.8468 17.387C18.6357 14.2361 15.5806 11.9999 12.0033 11.9999C8.42399 11.9999 5.36756 14.2386 4.15781 17.3921Z" fill="black"/>
</svg>
