<svg width="18" height="18" viewBox="0 0 18 18" fill="none" xmlns="http://www.w3.org/2000/svg">
<path fill-rule="evenodd" clip-rule="evenodd" d="M0 3C0 1.34315 1.34315 0 3 0H5.25C6.90685 0 8.25 1.34315 8.25 3V5.25C8.25 6.90685 6.90685 8.25 5.25 8.25H3C1.34315 8.25 0 6.90685 0 5.25V3ZM9.75 3C9.75 1.34315 11.0931 0 12.75 0H15C16.6569 0 18 1.34315 18 3V5.25C18 6.90685 16.6569 8.25 15 8.25H12.75C11.0931 8.25 9.75 6.90685 9.75 5.25V3ZM0 12.75C0 11.0931 1.34315 9.75 3 9.75H5.25C6.90685 9.75 8.25 11.0931 8.25 12.75V15C8.25 16.6569 6.90685 18 5.25 18H3C1.34315 18 0 16.6569 0 15V12.75ZM9.75 12.75C9.75 11.0931 11.0931 9.75 12.75 9.75H15C16.6569 9.75 18 11.0931 18 12.75V15C18 16.6569 16.6569 18 15 18H12.75C11.0931 18 9.75 16.6569 9.75 15V12.75Z" fill="black"/>
</svg>
